<svg width="120" height="120" viewBox="0 0 120 120" fill="none" xmlns="http://www.w3.org/2000/svg">
<rect width="120" height="120" rx="30" fill="url(#paint0_linear_137_109)"/>
<path d="M60 65.8333C64.8417 65.8333 68.7208 61.925 68.7208 57.0833L68.75 39.5833C68.75 34.7417 64.8417 30.8333 60 30.8333C55.1583 30.8333 51.25 34.7417 51.25 39.5833V57.0833C51.25 61.925 55.1583 65.8333 60 65.8333ZM75.4583 57.0833C75.4583 65.8333 68.05 71.9583 60 71.9583C51.95 71.9583 44.5417 65.8333 44.5417 57.0833H39.5833C39.5833 67.0292 47.5167 75.2542 57.0833 76.6833V86.25H62.9167V76.6833C72.4833 75.2833 80.4167 67.0583 80.4167 57.0833H75.4583Z" fill="white"/>
<defs>
<linearGradient id="paint0_linear_137_109" x1="-4.99835" y1="-8.48878" x2="116.923" y2="-5.30553" gradientUnits="userSpaceOnUse">
<stop stop-color="#790699"/>
<stop offset="0.173077" stop-color="#320699"/>
<stop offset="0.620192" stop-color="#3D64AC"/>
<stop offset="0.969649" stop-color="#28BFB2"/>
</linearGradient>
</defs>
</svg>
