<svg width="137" height="42" viewBox="0 0 137 42" fill="none" xmlns="http://www.w3.org/2000/svg">
<path d="M22.1616 41.5496C22.1616 41.8311 21.9928 42 21.7116 42H17.9993C17.6618 42 17.5493 41.8311 17.5493 41.5496V22.6327C17.5493 22.0697 17.4368 21.4504 17.3243 20.8311C17.0993 20.2681 16.8181 19.7614 16.4806 19.311C16.0868 18.8606 15.5806 18.5228 15.0181 18.185C14.3432 17.9598 13.6119 17.7909 12.712 17.7909H5.61231C5.06002 17.7909 4.61231 18.2386 4.61231 18.7909V41.5496C4.61231 41.8311 4.44357 42 4.16233 42H0.393734C0.112495 42 0 41.8311 0 41.5496V16.0456C0 15.4826 0.224991 14.9759 0.674972 14.4692C1.12495 14.0188 1.63118 13.7373 2.30615 13.7373H12.712C14.2869 13.7373 15.6931 13.9625 16.9305 14.4129C18.0555 14.9196 19.068 15.5389 19.8554 16.3271C20.5867 15.5389 21.5429 14.9196 22.7803 14.4129C23.9615 13.9625 25.3677 13.7373 26.9989 13.7373H30.3175C33.4674 13.7373 35.8298 14.5818 37.4047 16.2145C38.9796 17.9035 39.7671 20.0429 39.7671 22.6327V41.5496C39.7671 41.8311 39.5984 42 39.3171 42H35.5485C35.2673 42 35.1548 41.8311 35.1548 41.5496V22.6327C35.1548 22.0697 35.0423 21.4504 34.9298 20.8311C34.7048 20.2681 34.4236 19.7614 34.0861 19.311C33.6924 18.8606 33.1861 18.5228 32.6237 18.185C31.9487 17.9598 31.2175 17.7909 30.3175 17.7909H26.9989C26.0989 17.7909 25.3115 17.9598 24.749 18.185C24.074 18.5228 23.5678 18.8606 23.2303 19.311C22.8366 19.7614 22.5553 20.2681 22.4428 20.8311C22.2178 21.4504 22.1616 22.0697 22.1616 22.6327V41.5496Z" fill="black"/>
<path d="M22.1616 41.5496C22.1616 41.8311 21.9928 42 21.7116 42H17.9993C17.6618 42 17.5493 41.8311 17.5493 41.5496V22.6327C17.5493 22.0697 17.4368 21.4504 17.3243 20.8311C17.0993 20.2681 16.8181 19.7614 16.4806 19.311C16.0868 18.8606 15.5806 18.5228 15.0181 18.185C14.3432 17.9598 13.6119 17.7909 12.712 17.7909H5.61231C5.06002 17.7909 4.61231 18.2386 4.61231 18.7909V41.5496C4.61231 41.8311 4.44357 42 4.16233 42H0.393734C0.112495 42 0 41.8311 0 41.5496V16.0456C0 15.4826 0.224991 14.9759 0.674972 14.4692C1.12495 14.0188 1.63118 13.7373 2.30615 13.7373H12.712C14.2869 13.7373 15.6931 13.9625 16.9305 14.4129C18.0555 14.9196 19.068 15.5389 19.8554 16.3271C20.5867 15.5389 21.5429 14.9196 22.7803 14.4129C23.9615 13.9625 25.3677 13.7373 26.9989 13.7373H30.3175C33.4674 13.7373 35.8298 14.5818 37.4047 16.2145C38.9796 17.9035 39.7671 20.0429 39.7671 22.6327V41.5496C39.7671 41.8311 39.5984 42 39.3171 42H35.5485C35.2673 42 35.1548 41.8311 35.1548 41.5496V22.6327C35.1548 22.0697 35.0423 21.4504 34.9298 20.8311C34.7048 20.2681 34.4236 19.7614 34.0861 19.311C33.6924 18.8606 33.1861 18.5228 32.6237 18.185C31.9487 17.9598 31.2175 17.7909 30.3175 17.7909H26.9989C26.0989 17.7909 25.3115 17.9598 24.749 18.185C24.074 18.5228 23.5678 18.8606 23.2303 19.311C22.8366 19.7614 22.5553 20.2681 22.4428 20.8311C22.2178 21.4504 22.1616 22.0697 22.1616 22.6327V41.5496Z" fill="url(#paint0_linear_56_24)"/>
<path d="M50.753 22.126V33.6676C50.753 34.9062 51.0905 35.9196 51.8217 36.7078C52.4967 37.5523 53.7341 37.9464 55.5903 37.9464H62.7337C64.5337 37.9464 65.7711 37.5523 66.5023 36.7078C67.1773 35.9196 67.5148 34.9062 67.5148 33.6676V22.126L71.9088 26.2563C72.1115 26.4467 72.2256 26.713 72.2239 26.991L72.1833 33.6676C72.1833 36.2574 71.3959 38.3405 69.8772 39.8043C68.3023 41.2681 65.8836 42 62.7337 42H55.5903C52.3842 42 50.0218 41.2681 48.5031 39.8043C46.9281 38.3405 46.1407 36.2574 46.1407 33.6676V22.126C46.1407 19.5362 46.9281 17.4531 48.5031 15.933C50.0218 14.4692 52.3842 13.7373 55.5903 13.7373H62.7337C65.8836 13.7373 68.3023 14.4692 69.8772 15.933C71.3959 17.4531 72.1833 19.5362 72.1833 22.126H67.5148C67.5148 20.8874 67.1773 19.874 66.5023 19.0295C65.7711 18.2413 64.5337 17.7909 62.7337 17.7909H55.5903C53.7341 17.7909 52.4967 18.2413 51.8217 19.0295C51.0905 19.874 50.753 20.8874 50.753 22.126Z" fill="black"/>
<path d="M50.753 22.126V33.6676C50.753 34.9062 51.0905 35.9196 51.8217 36.7078C52.4967 37.5523 53.7341 37.9464 55.5903 37.9464H62.7337C64.5337 37.9464 65.7711 37.5523 66.5023 36.7078C67.1773 35.9196 67.5148 34.9062 67.5148 33.6676V22.126L71.9088 26.2563C72.1115 26.4467 72.2256 26.713 72.2239 26.991L72.1833 33.6676C72.1833 36.2574 71.3959 38.3405 69.8772 39.8043C68.3023 41.2681 65.8836 42 62.7337 42H55.5903C52.3842 42 50.0218 41.2681 48.5031 39.8043C46.9281 38.3405 46.1407 36.2574 46.1407 33.6676V22.126C46.1407 19.5362 46.9281 17.4531 48.5031 15.933C50.0218 14.4692 52.3842 13.7373 55.5903 13.7373H62.7337C65.8836 13.7373 68.3023 14.4692 69.8772 15.933C71.3959 17.4531 72.1833 19.5362 72.1833 22.126H67.5148C67.5148 20.8874 67.1773 19.874 66.5023 19.0295C65.7711 18.2413 64.5337 17.7909 62.7337 17.7909H55.5903C53.7341 17.7909 52.4967 18.2413 51.8217 19.0295C51.0905 19.874 50.753 20.8874 50.753 22.126Z" fill="url(#paint1_linear_56_24)"/>
<path d="M104.592 33.6676C104.592 36.2574 103.804 38.3405 102.286 39.8043C100.711 41.2681 98.2919 42 95.1421 42H87.9986C84.7925 42 82.4301 41.2681 80.9114 39.8043C79.3365 38.3405 78.549 36.2574 78.549 33.6676V22.126C78.549 19.5362 79.3365 17.4531 80.9114 15.933C82.4301 14.4692 84.7925 13.7373 87.9986 13.7373H99.9231V0.450403C99.9231 0.168902 100.036 0 100.373 0H104.142C104.423 0 104.592 0.168902 104.592 0.450403V33.6676ZM99.9231 17.7909H87.9986C86.1424 17.7909 84.905 18.2413 84.23 19.0295C83.4988 19.874 83.1613 20.8874 83.1613 22.126V33.6676C83.1613 34.9062 83.4988 35.9196 84.23 36.7078C84.905 37.5523 86.1424 37.9464 87.9986 37.9464H95.1421C96.942 37.9464 98.1794 37.5523 98.9107 36.7078C99.5856 35.9196 99.9231 34.9062 99.9231 33.6676V17.7909Z" fill="black"/>
<path d="M104.592 33.6676C104.592 36.2574 103.804 38.3405 102.286 39.8043C100.711 41.2681 98.2919 42 95.1421 42H87.9986C84.7925 42 82.4301 41.2681 80.9114 39.8043C79.3365 38.3405 78.549 36.2574 78.549 33.6676V22.126C78.549 19.5362 79.3365 17.4531 80.9114 15.933C82.4301 14.4692 84.7925 13.7373 87.9986 13.7373H99.9231V0.450403C99.9231 0.168902 100.036 0 100.373 0H104.142C104.423 0 104.592 0.168902 104.592 0.450403V33.6676ZM99.9231 17.7909H87.9986C86.1424 17.7909 84.905 18.2413 84.23 19.0295C83.4988 19.874 83.1613 20.8874 83.1613 22.126V33.6676C83.1613 34.9062 83.4988 35.9196 84.23 36.7078C84.905 37.5523 86.1424 37.9464 87.9986 37.9464H95.1421C96.942 37.9464 98.1794 37.5523 98.9107 36.7078C99.5856 35.9196 99.9231 34.9062 99.9231 33.6676V17.7909Z" fill="url(#paint2_linear_56_24)"/>
<path d="M115.57 33.1046C115.57 33.7239 115.626 34.2869 115.851 34.8499C115.963 35.4692 116.245 35.9759 116.638 36.4263C116.976 36.8767 117.482 37.2708 118.157 37.496C118.72 37.8338 119.507 37.9464 120.407 37.9464H127.55C128.45 37.9464 129.182 37.8338 129.857 37.496C130.419 37.2708 130.925 36.8767 131.319 36.4263C131.656 35.9759 131.881 35.4692 132.106 34.8499C132.219 34.2869 132.331 33.7239 132.331 33.1046V14.1877C132.331 13.9062 132.444 13.7373 132.781 13.7373H136.55C136.831 13.7373 137 13.9062 137 14.1877V33.1046C137 35.7507 136.213 37.8901 134.638 39.5228C133.063 41.1555 130.7 42 127.55 42H120.407C117.201 42 114.838 41.1555 113.32 39.5228C111.745 37.8901 110.957 35.7507 110.957 33.1046V14.1877C110.957 13.9062 111.07 13.7373 111.351 13.7373H115.12C115.401 13.7373 115.57 13.9062 115.57 14.1877V33.1046Z" fill="black"/>
<path d="M115.57 33.1046C115.57 33.7239 115.626 34.2869 115.851 34.8499C115.963 35.4692 116.245 35.9759 116.638 36.4263C116.976 36.8767 117.482 37.2708 118.157 37.496C118.72 37.8338 119.507 37.9464 120.407 37.9464H127.55C128.45 37.9464 129.182 37.8338 129.857 37.496C130.419 37.2708 130.925 36.8767 131.319 36.4263C131.656 35.9759 131.881 35.4692 132.106 34.8499C132.219 34.2869 132.331 33.7239 132.331 33.1046V14.1877C132.331 13.9062 132.444 13.7373 132.781 13.7373H136.55C136.831 13.7373 137 13.9062 137 14.1877V33.1046C137 35.7507 136.213 37.8901 134.638 39.5228C133.063 41.1555 130.7 42 127.55 42H120.407C117.201 42 114.838 41.1555 113.32 39.5228C111.745 37.8901 110.957 35.7507 110.957 33.1046V14.1877C110.957 13.9062 111.07 13.7373 111.351 13.7373H115.12C115.401 13.7373 115.57 13.9062 115.57 14.1877V33.1046Z" fill="url(#paint3_linear_56_24)"/>
<defs>
<linearGradient id="paint0_linear_56_24" x1="-5.70645" y1="-2.97107" x2="132.579" y2="8.80603" gradientUnits="userSpaceOnUse">
<stop stop-color="#790699"/>
<stop offset="0.173077" stop-color="#320699"/>
<stop offset="0.620192" stop-color="#3D64AC"/>
<stop offset="0.969649" stop-color="#28BFB2"/>
</linearGradient>
<linearGradient id="paint1_linear_56_24" x1="-5.70645" y1="-2.97107" x2="132.579" y2="8.80603" gradientUnits="userSpaceOnUse">
<stop stop-color="#790699"/>
<stop offset="0.173077" stop-color="#320699"/>
<stop offset="0.620192" stop-color="#3D64AC"/>
<stop offset="0.969649" stop-color="#28BFB2"/>
</linearGradient>
<linearGradient id="paint2_linear_56_24" x1="-5.70645" y1="-2.97107" x2="132.579" y2="8.80603" gradientUnits="userSpaceOnUse">
<stop stop-color="#790699"/>
<stop offset="0.173077" stop-color="#320699"/>
<stop offset="0.620192" stop-color="#3D64AC"/>
<stop offset="0.969649" stop-color="#28BFB2"/>
</linearGradient>
<linearGradient id="paint3_linear_56_24" x1="-5.70645" y1="-2.97107" x2="132.579" y2="8.80603" gradientUnits="userSpaceOnUse">
<stop stop-color="#790699"/>
<stop offset="0.173077" stop-color="#320699"/>
<stop offset="0.620192" stop-color="#3D64AC"/>
<stop offset="0.969649" stop-color="#28BFB2"/>
</linearGradient>
</defs>
</svg>
